<svg width="20" height="20" viewBox="0 0 20 20" fill="none" xmlns="http://www.w3.org/2000/svg">
<path d="M19.796 9.69723L0.533485 0.0383983C0.455191 -0.00075296 0.365384 -0.00996494 0.280182 0.0107622C0.0844489 0.0591254 -0.0375968 0.257184 0.0107609 0.455244L1.99573 8.56646C2.02567 8.68851 2.11547 8.78754 2.23522 8.8267L5.63637 9.99432L2.23752 11.162C2.11778 11.2034 2.02797 11.3001 2.00034 11.4222L0.0107609 19.5449C-0.00996384 19.6301 -0.000752747 19.7199 0.038394 19.7959C0.128201 19.9779 0.349265 20.0516 0.533485 19.9618L19.796 10.3582C19.8674 10.3237 19.9249 10.2638 19.9618 10.1947C20.0516 10.0104 19.9779 9.78936 19.796 9.69723ZM2.28127 17.2373L3.43955 12.5023L10.2373 10.1694C10.2902 10.1509 10.334 10.1095 10.3524 10.0542C10.3846 9.95748 10.334 9.85384 10.2373 9.81929L3.43955 7.48865L2.28588 2.77207L16.7471 10.0243L2.28127 17.2373V17.2373Z" fill="black"/>
</svg>
