<svg width="28" height="28" viewBox="0 0 28 28" fill="none" xmlns="http://www.w3.org/2000/svg">
<path d="M27.7144 13.5761L0.746879 0.0537576C0.637268 -0.00105414 0.511538 -0.0139509 0.392256 0.015067C0.118228 0.0827756 -0.0526355 0.360058 0.0150652 0.637341L2.79402 11.993C2.83593 12.1639 2.96166 12.3026 3.1293 12.3574L7.89092 13.9921L3.13253 15.6267C2.96489 15.6848 2.83916 15.8202 2.80047 15.9911L0.0150652 27.3629C-0.0139494 27.4822 -0.00105385 27.6079 0.0537516 27.7143C0.179482 27.969 0.488971 28.0722 0.746879 27.9465L27.7144 14.5015C27.8143 14.4531 27.8949 14.3693 27.9465 14.2726C28.0722 14.0146 27.969 13.7051 27.7144 13.5761ZM3.19378 24.1322L4.81537 17.5032L14.3322 14.2371C14.4063 14.2113 14.4676 14.1533 14.4934 14.0759C14.5385 13.9405 14.4676 13.7954 14.3322 13.747L4.81537 10.4841L3.20023 3.8809L23.446 14.034L3.19378 24.1322Z" fill="black"/>
</svg>
