<svg xmlns="http://www.w3.org/2000/svg" viewBox="0 0 1280 285.5"><defs><style>.cls-1{fill:#333}</style></defs><path class="cls-1" d="M39.8 178.8h65.4v31.6H0V11.9h39.8zM129.8 88.7q9.5-18.5 25.9-28.4a68.8 68.8 0 0136.5-10q17.6 0 30.9 7a62.6 62.6 0 0121.1 18V53h40.1v157.5h-40v-23a59.3 59.3 0 01-21.3 18.3q-13.5 7.3-31 7.3a67 67 0 01-36.3-10.2q-16.4-10.3-26-28.9t-9.4-42.8q0-24 9.5-42.4zm108.7 18a40.3 40.3 0 00-15.3-15.9 41 41 0 00-20.8-5.5 40 40 0 00-35.7 21.2Q161 116.9 161 131t5.8 24.9a42 42 0 0015.4 16.4 39 39 0 0020.3 5.6 41 41 0 0020.8-5.5 40.2 40.2 0 0015.4-16q5.6-10.3 5.6-24.8t-5.6-25zM354.4 205.3q-16.6-7.1-26.3-20.5t-10-31.6h42.7q.8 12.3 8.7 19.4t21.4 7q14 0 22-6.6a21.7 21.7 0 008-17.5q0-8.8-5.5-14.5a37.8 37.8 0 00-13.5-9 223.8 223.8 0 00-22.3-7.2 239 239 0 01-31.4-11.3 55 55 0 01-20.8-16.7q-8.6-11.3-8.6-30 0-17.7 8.8-30.8t24.7-20q16-7 36.4-7 30.7 0 49.9 15t21.2 41.6H416a22.8 22.8 0 00-8.7-16.9q-8-6.7-21.4-6.7-11.7 0-18.7 6t-7 17.4a17.9 17.9 0 005.3 13.2 40 40 0 0013 8.5 231.5 231.5 0 0022 7.6 232.5 232.5 0 0131.6 11.3 56.9 56.9 0 0121 17q8.9 11.5 8.9 30a56.1 56.1 0 01-8.3 29.6q-8.2 13.6-24.1 21.7t-37.8 8.1q-20.8 0-37.4-7.1zM525.4 202.9a72.6 72.6 0 01-28.6-28.6q-10.3-18.5-10.3-42.7T497 89a74.1 74.1 0 0129.2-28.6q18.5-10 41.2-10t41.2 10A74.1 74.1 0 01638 89q10.6 18.5 10.6 42.6t-11 42.7a75.8 75.8 0 01-29.5 28.6Q589.4 213 566.4 213q-22.8 0-41-10.1zm61.3-29.9a38.3 38.3 0 0015.2-15.8q5.7-10.5 5.7-25.6 0-22.4-11.8-34.5A38.8 38.8 0 00566.9 85a37.9 37.9 0 00-28.5 12.1q-11.6 12-11.6 34.5t11.3 34.6q11.2 12 28.3 12a41.4 41.4 0 0020.3-5.2zM738.8 57.6q13.5-7.3 30.9-7.3a68.8 68.8 0 0136.5 10q16.3 10 25.9 28.3t9.5 42.5q0 24.2-9.5 42.8t-26 28.9a67.5 67.5 0 01-36.5 10.2q-17.3 0-30.5-7.1a65.6 65.6 0 01-21.5-18v97.6h-39.8V52.9h39.8v22.7q7.7-10.8 21.2-18zm56.3 48.9a40.4 40.4 0 00-15.4-15.8 41 41 0 00-20.6-5.4 39.7 39.7 0 00-20.3 5.5 41.1 41.1 0 00-15.3 16.1q-5.9 10.5-5.9 24.7t5.8 24.8a41.1 41.1 0 0015.4 16 40 40 0 0041-.1 42.2 42.2 0 0015.3-16.2q5.8-10.5 5.8-25 0-14.2-5.8-24.6zM991.1 58.4a53.8 53.8 0 0121.8 23q7.8 15.2 7.8 36.6v92.4h-39.8v-87q0-18.8-9.4-28.9t-25.6-10q-16.5 0-26 10t-9.5 28.9v87h-39.8V0h39.8v72.5a51.8 51.8 0 0120.5-16 67.9 67.9 0 0128.4-5.9q17.9 0 31.8 7.8zM1125.5 88.7q9.5-18.5 25.8-28.4a68.8 68.8 0 0136.6-10q17.6 0 30.8 7a62.6 62.6 0 0121.2 18V53h40.1v157.5h-40v-23a59.3 59.3 0 01-21.3 18.3q-13.5 7.3-31.1 7.3a67 67 0 01-36.3-10.2q-16.3-10.3-25.8-28.9t-9.5-42.8q0-24 9.5-42.4zm108.7 18a40.2 40.2 0 00-15.3-15.9 41 41 0 00-20.8-5.5 40 40 0 00-35.7 21.2q-5.8 10.4-5.8 24.6t5.8 24.8a42 42 0 0015.4 16.4 39 39 0 0020.3 5.7 41 41 0 0020.8-5.6 40.1 40.1 0 0015.3-15.9q5.7-10.4 5.7-24.9t-5.7-24.8zM1110.2 37.7c-5.4-16-20-26.3-37.2-26.3s-32.2 10.3-37.6 26.3a51.7 51.7 0 00-.5 24.2 36.5 36.5 0 006.4 12.6 11.8 11.8 0 005.5 4l1 .4c1.6.5 3.2 1 5 1.4a97.8 97.8 0 0020 2.1h1a86.5 86.5 0 0019.2-2.1c1.8-.4 3.4-1 5-1.4a5.1 5.1 0 001-.4 11.8 11.8 0 005.4-4 37.6 37.6 0 006.5-12.6c1.1-4.3 2.1-16-.7-24.2zM1092 86.5a2.5 2.5 0 00-.5 0l-.9.2-3 .5a103.6 103.6 0 01-14.2 1 115.7 115.7 0 01-15.2-1l-3-.5-.9-.2a2.7 2.7 0 00-.5 0 5.5 5.5 0 00-5.5 5.3 7.7 7.7 0 010 1c2.4 29.9 8.3 107 9 112 0 0 1.4 5.7 15.7 5.6s15.7-5.6 15.7-5.6c.7-5 6.6-82 9-112a7.7 7.7 0 010-1 5.7 5.7 0 00-5.6-5.3zm-14.3 35.8a4.9 4.9 0 01-9.8 0v-14.5a4.9 4.9 0 019.8 0z"/><path d="M1077.8 122.4a4.9 4.9 0 01-9.7 0v-14.6a4.9 4.9 0 019.7 0z" fill="#fdd026"/></svg>